<?xml version="1.0" encoding="UTF-8" standalone="no"?>
<svg
   width="512"
   height="512"
   viewBox="0 0 512 512"
   version="1.1"
   id="svg1"
   xmlns="http://www.w3.org/2000/svg">
  <style>
    #path2 { fill: #000000 }
    @media (prefers-color-scheme: dark) {
      #path2 { fill: #ffffff }
    }
  </style>
  <g id="layer1">
    <path
       d="m 511.87968,139.64652 0.13963,0.0931 c 1.47321,6.06688 -87.78569,230.59222 -97.18146,254.54407 -33.55203,0.1113 -67.10607,0 -100.65607,-0.33996 C 297.51303,355.5552 268.79752,293.56895 256,256 c -14.78475,45.15357 -28.57994,92.67682 -42.5876,138.2493 l -96.60067,-0.20844 C 76.954846,309.69755 38.048366,224.85408 0.03734232,139.65259 L 100.66912,139.61419 c 23.46618,51.65554 45.03215,103.44464 67.86898,155.15077 19.30961,-51.45727 37.51381,-104.46966 55.32996,-155.21254 12.16059,0.13457 56.83861,-0.086 75.59981,0.18921 l 62.79165,155.99261 c 20.91242,-51.03178 40.27457,-107.71024 61.5167,-155.98114 12.83763,0.13316 71.72133,-0.10826 88.10346,-0.10644 z"
       id="path2"
       style="stroke-width:2.02365" />
  </g>
</svg>
