<?xml version="1.0" encoding="UTF-8" standalone="no"?>
<svg
   width="1536"
   height="1024"
   viewBox="0 0 1536 1024"
   version="1.1"
   id="svg9"
   sodipodi:docname="image.svg"
   inkscape:version="1.4 (86a8ad7, 2024-10-11)"
   xmlns:inkscape="http://www.inkscape.org/namespaces/inkscape"
   xmlns:sodipodi="http://sodipodi.sourceforge.net/DTD/sodipodi-0.dtd"
   xmlns="http://www.w3.org/2000/svg"
   xmlns:svg="http://www.w3.org/2000/svg">
  <defs
     id="defs9" />
  <sodipodi:namedview
     id="namedview9"
     pagecolor="#ffffff"
     bordercolor="#666666"
     borderopacity="1.0"
     inkscape:showpageshadow="2"
     inkscape:pageopacity="0.0"
     inkscape:pagecheckerboard="0"
     inkscape:deskcolor="#d1d1d1"
     showguides="false"
     inkscape:zoom="0.70710678"
     inkscape:cx="858.42763"
     inkscape:cy="347.18943"
     inkscape:window-width="1920"
     inkscape:window-height="1001"
     inkscape:window-x="-7"
     inkscape:window-y="-7"
     inkscape:window-maximized="1"
     inkscape:current-layer="svg9">
    <sodipodi:guide
       position="424.97117,602.56436"
       orientation="0,-1"
       id="guide9"
       inkscape:locked="false" />
  </sodipodi:namedview>
  <path
     d="m 865.84,421.118 c 17.616,-1.844 31.557,1.526 47.82,7.251 15.24,-7.858 29.68,-7.033 46.307,-7.154 v 26.798 l -22.746,0.116 c 11.3,9.653 16.133,23.275 12.341,37.914 -9.74,37.59 -59.303,32.375 -88.669,39.505 -7.736,1.878 -12.445,4.8 -19.001,8.916 37.01,-5.358 74.169,-8.012 111.534,-9.044 56.244,-1.552 107.314,4.639 158.704,28.604 -22.21,11.545 -46.39,22.225 -71.38,25.519 4.51,-6.289 12.77,-18.387 18.3,-23.256 -29.72,-11.504 -80.596,-13.321 -112.673,-13.152 -37.795,-0.342 -80.493,2.875 -117.87,9.378 -16.131,2.807 -32.439,6.073 -48.33,10.022 -41.432,10.298 -138.963,41.095 -177.217,21.227 -12.92405,-6.09303 -12.50538,-17.66714 -6.176,-28.695 21.515,36.16 125.467,3.121 159.743,-4.984 18.359,-4.369 36.869,-8.073 55.495,-11.105 4.911,-12.795 11.566,-17.208 24.08,-21.718 -29.038,-12.389 -34.169,-48.758 -16.788,-73.225 10.882,-15.318 28.774,-20.302 46.526,-22.917 z m 14.092,75.189 c 38.61,-3.23 33.482,-43.114 -1.569,-43.599 -25.63493,1.03994 -26.68806,17.40346 -26.36,22.66 0.20031,3.11586 2.4611,21.44741 27.929,20.939 z"
     id="path1"
     sodipodi:nodetypes="cccccccccccccccccccccccccc" />
  <path
     d="m 401.298,421.356 0.069,0.046 c 0.728,2.998 -43.38,113.949 -48.023,125.785 -16.58,0.055 -33.161,0 -49.74,-0.168 -8.237,-18.97 -22.427,-49.601 -28.751,-68.166 -7.306,22.313 -14.123,45.797 -21.045,68.317 l -47.736,-0.103 C 186.3764,505.38808 167.15045,463.462 148.367,421.359 l 49.728,-0.019 c 11.596,25.526 22.253,51.118 33.538,76.669 9.542,-25.428 18.53775,-51.6245 27.34175,-76.6995 6.00925,0.0665 28.08725,-0.0425 37.35825,0.0935 l 31.029,77.085 c 10.33404,-25.21776 19.902,-53.22588 30.39897,-77.07933 6.34382,0.0658 35.44167,-0.0535 43.53703,-0.0526 z"
     id="path2"
     sodipodi:nodetypes="cccccccccccccscc" />
  <path
     d="M 641.29521,420.75567 641.146,547.082 602.117,547.03 c -0.362,-7.727 0.009,-17.105 0.129,-24.96 -5.061,7.708 -8.771,11.266 -15.426,17.279 -15.922,11.714 -36.566,14.915 -54.793,6.397 -34.301,-16.031 -38.192,-67.377 -17.055,-95.364 30.78001,-38.46667 82.23086,-29.33381 126.32321,-29.62633 z M 598.977,495.185 c 0.229,-13.314 -0.148,-26.838 0.141,-40.004 -15.822,-2.44509 -31.92548,0.13172 -43.414,12.085 -26.48552,30.43077 16.36383,67.71683 43.273,27.919 z"
     id="path3"
     sodipodi:nodetypes="cccccccccccc" />
  <path
     d="m 1107.3936,421.12472 c 45.0865,0.0381 72.3141,22.09842 66.3064,75.42228 -29.07,-1.003 -59.33,0.419 -88.61,-0.473 11.81,31.738 50.03,21.852 74.37,13.361 5.8205,10.05409 9.5957,16.90632 13,24.049 -12.97,12.269 -25.26,14.244 -41.99,16.41 -29.19,-17.687 -49.17,-23.92 -81.85,-31.443 -19.2867,-33.24418 -10.0305,-97.3844 58.7736,-97.32628 z M 1083.54,471.673 c 16.82,0.003 33.64,-0.0119 50.46,-0.027 -3.1,-13.918 -12.46,-21.664 -27.09,-20.518 -14.48,1.785 -19.9,6.232 -23.37,20.545 z"
     id="path4"
     sodipodi:nodetypes="sccccccscccc" />
  <path
     d="m 750.773,420.951 c 42.059,0.384 39.63,31.4 39.659,62.85 0.041,15.624 -0.008,31.248 -0.147,46.872 -13.71519,1.98346 -30.25849,5.78632 -42.519,8.278 -1.014,-21.619 0.92,-43.84 -0.486,-65.517 -0.79,-12.183 -9.056,-16.046 -20.212,-13.892 -9.897,1.91 -16.577,8.987 -21.965,16.974 -0.63316,23.52144 -0.22815,47.06595 -0.192,70.595 l -42.77,-0.042 -0.03,-125.67 42.857,-0.017 -0.006,24.302 c 16.5665,-23.47219 39.72079,-24.81178 45.811,-24.733 z"
     id="path5"
     sodipodi:nodetypes="ccccccccccccc" />
  <path
     d="m 981.931,343.109 c 14.391,0.17 29.839,0.39 44.169,0.006 l -0.05,172.506 c -13.15,-1.495 -26.73885,-2.64321 -43.91785,-3.0332 -0.23072,-59.13841 -0.374,-112.99932 -0.20115,-169.47879 z"
     id="path6"
     sodipodi:nodetypes="cccccc" />
  <path
     d="m 1296.68,422.153 c -5.32,14.322 -10.39,28.733 -15.22,43.229 -37.2243,-12.28821 -45.3124,12.64885 -46.47,17.255 -1.9,7.534 -1.03,53.535 -1,64.447 -14.12,0.116 -28.25,0.113 -42.37,-0.012 0.67,-41.244 0.13,-84.416 0.02,-125.785 l 42.3,0.112 c -0.4089,15.90924 -0.2407,20.11538 -0.41,24.68 l 0.49,-0.664 c 15.6486,-21.36993 38.0958,-25.88526 62.66,-23.262 z"
     id="path7"
     sodipodi:nodetypes="cccccccccc" />
  <path
     d="m 963.126,555.163 c 12.118,15.166 8.08,33.343 -6.954,44.61 -28.029,21.006 -70.289,22.763 -103.923,19.912 -16.713,-1.417 -39.591,-7.103 -50.581,-20.306 -10.871,-13.853 -1.226,-24.322 10.331,-32.393 4.4,-2.577 14.406,-7.726 19.157,-4.557 3.03801,7.33076 -7.51279,13.71873 -2.933,19.43 4.392,5.475 16.385,7.651 23.045,8.64 17.27,2.566 53.258,2.924 67.492,-8.277 2.16775,-1.83138 5.43639,-5.3638 3.061,-8.12 -7.027,-7.517 -68.287,-8.451 -81.871,-9.358 25.2578,-7.37351 93.32888,-10.87187 123.176,-9.581 z"
     id="path8"
     sodipodi:nodetypes="csccccccsccc" />
  <path
     d="m 511.28,422.021 c -5.36,13.989 -10.594,28.026 -15.7,42.11 -9.371,-2.593 -21.377,-4.265 -29.214,2.927 -9.651,8.858 -8.00212,26.721 -7.98512,38.754 l 0.063,41.355 c -6.311,-0.079 -36.89345,0.0206 -42.54415,-0.0365 -0.0436,-41.35011 -0.006,-84.05357 -0.0327,-125.71755 13.068,-0.187 26.41,-0.081 39.504,-0.113 l -0.068,23.613 C 473.61034,420.44162 493.28831,419.66681 511.28,422.021 Z"
     id="path9"
     sodipodi:nodetypes="cccccccccc" />
</svg>
